<svg viewBox="0 0 512 512" xmlns="http://www.w3.org/2000/svg"><path d="M273.916 211.426h68.36a4 4 0 0 0 4-4v-83.632a4 4 0 0 0-4-4h-68.36a4 4 0 0 0-4 4v83.632a4 4 0 0 0 4 4Zm64.36-8h-60.36v-.38a13.292 13.292 0 0 1 10.7-13.037l9.03-.774c.129-.012.257-.029.385-.052a8.555 8.555 0 0 0 7-8.413v-1.494a8.584 8.584 0 0 0-3.734-7.064 12.021 12.021 0 0 1-5.214-9.903v-9.747a12.014 12.014 0 0 1 24.027 0v9.747a12.02 12.02 0 0 1-5.215 9.903 8.585 8.585 0 0 0-3.734 7.064v1.494a8.556 8.556 0 0 0 7.001 8.413c.128.023.256.04.385.051l9.029.775a13.293 13.293 0 0 1 10.7 13.036Zm0-75.632v58.64a21.208 21.208 0 0 0-9.426-4.327 4.062 4.062 0 0 0-.384-.051l-8.948-.768a.555.555 0 0 1-.357-.518v-1.494a.588.588 0 0 1 .269-.474 20.02 20.02 0 0 0 8.68-16.493v-9.747a20.014 20.014 0 0 0-40.027 0v9.747a20.02 20.02 0 0 0 8.68 16.493.587.587 0 0 1 .269.474v1.494a.554.554 0 0 1-.357.518l-8.948.768a4.054 4.054 0 0 0-.384.051 21.208 21.208 0 0 0-9.426 4.327v-58.64ZM164.732 205.354h65.237v8h-65.237zM164.732 221.256h40.677v8h-40.677zM164.732 250.926h65.237v8h-65.237zM164.732 267.829h65.236v8h-65.236zM268.589 250.926h65.237v8h-65.237zM268.589 267.829h65.236v8h-65.236z" fill="#0ea5e9" class="fill-000000"></path><path d="M387.846 303.04a23.54 23.54 0 0 0-12.977-7.9V98.812a4 4 0 0 0-4-4H133.283a4 4 0 0 0-4 4v133.539h-21.017a22.229 22.229 0 0 0-22.204 22.203v158.343c0 .069.017.132.02.2a3.966 3.966 0 0 0 3.98 4.089h281.176a4 4 0 0 0 3.931-3.265l17.394-92.988a21.713 21.713 0 0 0-4.717-17.895Zm-20.977-200.227V294.53H137.283V102.813ZM108.266 240.352h21.017v54.178h-1.402c-11.41 0-21.149 7.783-23.154 18.505L94.062 370.05V254.555a14.22 14.22 0 0 1 14.204-14.203Zm276.434 79.11-16.784 89.725H94.88l17.71-94.68c1.298-6.94 7.729-11.977 15.29-11.977h241.53a15.852 15.852 0 0 1 12.28 5.62 13.557 13.557 0 0 1 3.01 11.313Z" fill="#0ea5e9" class="fill-000000"></path><path d="M160.498 170.164h11.508v11.508a4 4 0 0 0 4 4h26.862a4 4 0 0 0 4-4v-11.508h11.508a4 4 0 0 0 4-4v-26.862a4 4 0 0 0-4-4h-11.508v-11.508a4 4 0 0 0-4-4h-26.862a4 4 0 0 0-4 4v11.508h-11.508a4 4 0 0 0-4 4v26.862a4 4 0 0 0 4 4Zm4-26.862h11.508a4 4 0 0 0 4-4v-11.508h18.862v11.508a4 4 0 0 0 4 4h11.508v18.862h-11.508a4 4 0 0 0-4 4v11.508h-18.862v-11.508a4 4 0 0 0-4-4h-11.508Z" fill="#0ea5e9" class="fill-000000"></path></svg>