<svg viewBox="0 0 48 48" xmlns="http://www.w3.org/2000/svg"><path d="M24.027 37.912a2.78 2.78 0 0 0-3.608-1.56l-7.93 3.142a2.781 2.781 0 0 0 1.024 5.365 2.789 2.789 0 0 0 1.024-.2l7.93-3.142a2.784 2.784 0 0 0 1.56-3.605Zm-10.043 5.355a1.279 1.279 0 0 1-1.645-1.7 1.274 1.274 0 0 1 .7-.682l3.267-1.294.943 2.379Zm7.93-3.142-3.267 1.3-.947-2.384 3.268-1.294a1.28 1.28 0 0 1 1.661.717 1.281 1.281 0 0 1-.715 1.661ZM35.177 37.317 31.8 34.708 28.431 32.1a2.778 2.778 0 0 0-3.9.5 2.784 2.784 0 0 0 .5 3.9l6.746 5.219a2.78 2.78 0 1 0 3.4-4.4Zm-9.458-3.8a1.269 1.269 0 0 1 .849-.486 1.3 1.3 0 0 1 .164-.01 1.265 1.265 0 0 1 .781.268l2.78 2.15-1.566 2.024-2.78-2.15a1.283 1.283 0 0 1-.228-1.8Zm8.77 6.785a1.281 1.281 0 0 1-1.8.229l-2.78-2.15 1.566-2.024 2.78 2.15a1.282 1.282 0 0 1 .234 1.793ZM32.354 42.441h-8.529a2.78 2.78 0 0 0 0 5.559h8.529a2.78 2.78 0 1 0 0-5.559Zm-9.808 2.78a1.281 1.281 0 0 1 1.279-1.28h3.515V46.5h-3.515a1.281 1.281 0 0 1-1.279-1.279Zm9.808 1.279H28.84v-2.559h3.514a1.28 1.28 0 1 1 0 2.559ZM45.551 40.6a4.458 4.458 0 1 0-3.635 7.392c.1.006.2.009.292.009a4.458 4.458 0 0 0 3.343-7.4Zm-5.3.722a2.937 2.937 0 0 1 3.6-.225l-4.282 3.765a2.924 2.924 0 0 1 .682-3.54Zm3.906 4.442a2.925 2.925 0 0 1-3.6.224l4.281-3.763a2.954 2.954 0 0 1-.683 3.538ZM39.894 37.987a4.458 4.458 0 1 0-4.909-3.957 4.458 4.458 0 0 0 4.423 3.982 4.665 4.665 0 0 0 .486-.025ZM37.115 31.7a2.943 2.943 0 0 1 1.985-1.087 3.06 3.06 0 0 1 .317-.017 2.958 2.958 0 0 1 2.751 1.909l-5.667.608a2.929 2.929 0 0 1 .614-1.413Zm.447 4.159a2.925 2.925 0 0 1-.9-1.253l5.67-.606a2.948 2.948 0 0 1-4.77 1.861ZM24.768 41.766a4.789 4.789 0 0 0 2.818-.909.75.75 0 1 0-.877-1.216 3.306 3.306 0 0 1-1.941.625.75.75 0 1 0 0 1.5Z" fill="#0ea5e9" class="fill-000000"></path><path d="M9.185 40.266H6.166a3.331 3.331 0 0 1-3.326-3.327V35.1H22.5a.75.75 0 1 0 0-1.5H2.84V18.387H6.2a.75.75 0 0 0 0-1.5H2.84v-3.354a3.33 3.33 0 0 1 3.326-3.326h18.6a3.33 3.33 0 0 1 3.326 3.326v3.354H8.77a.75.75 0 0 0 0 1.5h19.324v11.934a.75.75 0 1 0 1.5 0V13.533a4.832 4.832 0 0 0-4.826-4.826h-2.7v-2.4h3.7a.75.75 0 0 0 .75-.75V.75a.75.75 0 0 0-.75-.75H5.173a.75.75 0 0 0-.75.75v4.807a.75.75 0 0 0 .75.75h3.694v2.4h-2.7a4.832 4.832 0 0 0-4.827 4.826v23.406a4.832 4.832 0 0 0 4.826 4.827h3.019a.75.75 0 1 0 0-1.5Zm1.182-33.959h7.182a.75.75 0 0 0 0-1.5H5.923V1.5h19.088v3.307h-4.947a.75.75 0 0 0 0 1.5h.5v2.4h-10.2Z" fill="#0ea5e9" class="fill-000000"></path><path d="M17.309 31.276h-3.684a.75.75 0 0 1-.75-.75v-1.963h-1.963a.75.75 0 0 1-.75-.75v-3.684a.75.75 0 0 1 .75-.75h1.963v-1.963a.75.75 0 0 1 .75-.75h3.684a.75.75 0 0 1 .75.75v1.963h1.962a.75.75 0 0 1 .75.75v3.684a.75.75 0 0 1-.75.75h-1.962v1.963a.75.75 0 0 1-.75.75Zm-2.934-1.5h2.184v-1.963a.75.75 0 0 1 .75-.75h1.962v-2.184h-1.962a.75.75 0 0 1-.75-.75v-1.963h-2.184v1.963a.75.75 0 0 1-.75.75h-1.963v2.184h1.963a.75.75 0 0 1 .75.75Z" fill="#0ea5e9" class="fill-000000"></path></svg>